<svg width="56" height="56" viewBox="0 0 56 56" fill="none" xmlns="http://www.w3.org/2000/svg">
<circle cx="28" cy="28" r="28" fill="#929292"/>
<g clip-path="url(#clip0_73_4)">
<path d="M46 44.4235V37.5564C46 36.804 45.6374 36.0995 45.0296 35.6678L40.7516 32.6344C40.465 32.4312 40.1228 32.3223 39.7727 32.3223H36.3279L36.3849 42.1823C36.4059 43.2096 37.0688 44.11 38.0352 44.4241H46.0007L46 44.4235Z" fill="#FEC9A3"/>
<path d="M42.586 44.4236H38.603C37.3461 44.4236 36.3272 43.3917 36.3272 42.1187V39.8137H40.3103L42.586 44.4236Z" fill="#FABD91"/>
<path d="M27.7934 15.0342C27.4013 15.0342 27.0138 15.1179 26.6551 15.2772V11H16.414C14.5283 11 13 12.5479 13 14.4578V24.8304H17.223C16.5916 23.3735 17.2453 21.6735 18.6845 21.034C20.1229 20.3945 21.8014 21.0566 22.4328 22.5142C22.7534 23.2526 22.7534 24.0933 22.4328 24.8311H26.6558V20.5539C28.0943 21.1934 29.7727 20.5313 30.4041 19.0737C31.0355 17.6161 30.3818 15.9167 28.9427 15.2772C28.5808 15.1152 28.1894 15.0329 27.7934 15.0335V15.0342Z" fill="#88B337"/>
<path d="M40.3103 14.4578C40.3103 12.5479 38.782 11 36.8964 11H26.6552V15.2772C28.0936 14.6377 29.7721 15.2998 30.4035 16.7568C31.0349 18.2137 30.3812 19.9137 28.942 20.5532C28.213 20.8779 27.3829 20.8779 26.6545 20.5532V24.8304H30.8775C30.2461 26.2874 30.8998 27.9874 32.339 28.6269C33.7774 29.2664 35.4559 28.6043 36.0873 27.1467C36.4079 26.4082 36.4079 25.5675 36.0873 24.8298H40.311V14.4578H40.3103Z" fill="#E8594A"/>
<path d="M40.3103 14.7864C37.0583 19.3691 31.187 21.9715 26.6552 23.3727V24.8303H30.8782C30.2468 26.2873 30.9005 27.9873 32.3396 28.6268C33.7781 29.2663 35.4566 28.6042 36.0879 27.1466C36.4086 26.4081 36.4086 25.5674 36.0879 24.8297H40.311V14.7864H40.3103Z" fill="#D65245"/>
<path d="M25.5176 29.4411C25.9097 29.4411 26.2972 29.5247 26.6558 29.6841V24.8305H22.4328C23.0642 23.3735 22.4105 21.6735 20.9714 21.034C19.5322 20.3945 17.8544 21.0566 17.223 22.5142C16.9024 23.2527 16.9024 24.0934 17.223 24.8311H13V35.2038C13 37.1136 14.5283 38.6616 16.414 38.6616H26.6552V34.9607C25.2167 35.6002 23.5382 34.9382 22.9068 33.4806C22.2754 32.0236 22.9291 30.3236 24.3683 29.6841C24.7302 29.5221 25.1216 29.4397 25.5176 29.4404V29.4411Z" fill="#FDB62F"/>
<path d="M13 35.2037C13 37.1136 14.5283 38.6615 16.414 38.6615H26.6551V34.9607C25.2239 35.5988 23.552 34.9414 22.9219 33.4918C22.7757 33.1551 22.6944 32.7925 22.6826 32.4253C19.6325 33.8032 16.3392 34.545 13 34.6067V35.2044V35.2037Z" fill="#FFA719"/>
<path d="M41.7986 36.8746L38.1985 27.1355L34.2449 28.6436C35.3471 29.7805 35.33 31.6073 34.2075 32.7229C33.0851 33.8385 31.2814 33.8219 30.1799 32.6851C29.6187 32.106 29.3243 31.3144 29.3682 30.5043L25.4153 32.0124L27.0997 36.5698C26.7089 36.5473 26.3175 36.6077 25.9503 36.7471C24.481 37.3249 23.7533 38.9983 24.323 40.4865C24.8836 41.9487 26.4932 42.6912 27.9501 42.1586C28.3172 42.0185 28.6516 41.802 28.9316 41.5237L30.2153 44.9994L39.8035 41.3418C41.5705 40.6644 42.4634 38.6656 41.7986 36.874V36.8746Z" fill="#4398D1"/>
<path d="M39.9418 31.8523C36.0158 37.7996 28.6562 39.8762 24.346 40.5914C24.9511 42.049 26.6073 42.7336 28.0464 42.1207C28.3756 41.9806 28.6765 41.778 28.9309 41.5244L30.2147 45.0001L39.8028 41.3424C41.5698 40.6651 42.4615 38.6676 41.798 36.8766L39.9412 31.853L39.9418 31.8523Z" fill="#3E8FC9"/>
<path d="M27.7934 15.0342C27.4013 15.0342 27.0138 15.1178 26.6551 15.2772V14.4412C22.3948 18.4129 16.6224 20.607 13 21.6761V24.8304H17.223C16.5916 23.3735 17.2453 21.6735 18.6845 21.034C20.1229 20.3945 21.8014 21.0566 22.4328 22.5142C22.7534 23.2526 22.7534 24.0933 22.4328 24.8311H26.6558V20.5539C28.0943 21.1933 29.7727 20.5313 30.4041 19.0737C31.0355 17.616 30.3818 15.9167 28.9427 15.2772C28.5808 15.1152 28.1894 15.0328 27.7934 15.0335V15.0342Z" fill="#80A834"/>
<path d="M39.1826 36.943C38.6384 36.3806 37.7467 36.3713 37.1914 36.9231C36.6361 37.4743 36.6269 38.3774 37.1717 38.9399C37.1783 38.9465 37.1848 38.9538 37.1914 38.9598L39.1728 40.9666C39.1728 42.8764 40.7011 44.4244 42.5867 44.4244H46.0007V43.848L39.1832 36.943H39.1826Z" fill="#FEC9A3"/>
</g>
<defs>
<clipPath id="clip0_73_4">
<rect width="33" height="34" fill="white" transform="translate(13 11)"/>
</clipPath>
</defs>
</svg>
