<svg width="56" height="56" viewBox="0 0 56 56" fill="none" xmlns="http://www.w3.org/2000/svg">
<circle cx="28" cy="28" r="28" fill="#3CD28A"/>
<g clip-path="url(#clip0_73_3)">
<path d="M35.1093 15.258V15.1039C35.1093 14.4942 35.5973 14 36.1984 14H38.2509C38.852 14 39.34 14.4942 39.34 15.1039V15.1802L35.11 15.258H35.1093Z" fill="#EDC963"/>
<path d="M16.66 15.1802V15.1039C16.66 14.4942 17.1473 14 17.7484 14H19.8016C20.4027 14 20.89 14.4942 20.89 15.1039V15.258L16.66 15.1802Z" fill="#EDC963"/>
<path d="M16.66 16.5053V15.1803C17.29 14.9621 17.9657 14.843 18.6688 14.843C19.4514 14.843 20.2002 14.9899 20.89 15.2581V16.5831L16.66 16.5053Z" fill="#E7B93E"/>
<path d="M37.3312 16.1679C36.5486 16.1679 35.7998 16.3148 35.11 16.583V15.1039C35.1093 14.4942 35.5973 14 36.1984 14H38.2509C38.852 14 39.34 14.4942 39.34 15.1039V16.5052C38.71 16.287 38.0343 16.1679 37.3312 16.1679Z" fill="#EDC963"/>
<path d="M35.1093 16.5831V15.2581C35.7991 14.9899 36.5479 14.843 37.3305 14.843C38.0336 14.843 38.7093 14.9621 39.3393 15.1803V16.5053L35.1093 16.5831Z" fill="#E7B93E"/>
<path d="M43.6227 39.8897C40.3616 41.3559 38.7663 39.158 38.0533 37.0122L36.3285 31.8035L35.9523 31.3306C35.9523 31.3306 34.8885 31.9147 33.985 31.9147C32.9071 31.9147 31.9298 31.4797 31.2133 30.7744C31.1465 30.7088 31.0572 30.6738 30.9644 30.6738H25.037C24.9442 30.6738 24.8549 30.7088 24.7881 30.7744C24.0709 31.4797 23.0936 31.9147 22.0164 31.9147C21.1129 31.9147 20.0484 31.3306 20.0484 31.3306L19.6722 31.8035L17.9481 37.0093C17.2359 39.1566 14.4409 40.8831 12.3773 40.0145C11.1292 39.4889 10.0555 37.9079 10.0555 36.4267L12.5073 21.6192L12.5088 21.6206C12.9201 18.542 15.5202 16.168 18.6688 16.168C20.4463 16.168 22.0473 16.9253 23.1808 18.1376H32.8192C33.952 16.9253 35.5537 16.168 37.3312 16.168C40.4798 16.168 43.0799 18.542 43.4913 21.6206L43.4927 21.6192L45.9466 36.4417L45.9438 36.4267C46 38.2516 44.8701 39.3648 43.6227 39.8897Z" fill="#454D58"/>
<path d="M43.6227 39.3753C44.8708 38.8498 45.7251 37.7194 45.9445 36.4272L45.9473 36.4422C46.2447 38.2372 45.2807 40.0029 43.6234 40.7011C41.5598 41.5697 39.2029 40.4828 38.4913 38.3349L38.054 37.0134C38.7677 39.1593 41.5612 40.2439 43.6234 39.3761L43.6227 39.3753Z" fill="#3C434C"/>
<path d="M10.0562 36.4267C10.2756 37.7189 11.1299 38.85 12.378 39.3748C14.4409 40.2434 17.2366 39.1573 17.9488 37.0094L17.5108 38.3329C16.7992 40.4809 14.4423 41.5677 12.3787 40.6991C10.7207 40.001 9.75742 38.2359 10.0548 36.4403L10.057 36.4253L10.0562 36.4267Z" fill="#3C434C"/>
<path d="M19.9541 30.9504C20.0308 30.7194 20.3043 30.626 20.5026 30.7636C20.9512 31.0752 21.3273 31.2528 22.015 31.2528C23.0929 31.2528 24.0702 30.8178 24.7867 30.1125C24.8535 30.0469 24.9428 30.012 25.0356 30.012H30.963C31.0558 30.012 31.1451 30.0469 31.2119 30.1125C31.9291 30.8178 32.9064 31.2528 33.9843 31.2528C34.6727 31.2528 35.0488 31.0752 35.4967 30.7636C35.695 30.626 35.9685 30.7194 36.0452 30.9504L36.3278 31.8034C35.6704 32.2897 34.8604 32.5771 33.9843 32.5771C32.8565 32.5771 31.8384 32.1007 31.1134 31.337H24.8859C24.1609 32.1014 23.1435 32.5771 22.015 32.5771C21.1389 32.5771 20.3289 32.2897 19.6715 31.8034L19.9541 30.9504Z" fill="#3C434C"/>
<path d="M35.4236 27.9218C35.4236 28.5786 34.558 29.6519 33.8479 29.6519C33.1377 29.6519 32.2722 28.5736 32.2722 27.9218C32.5288 27.295 33.1377 26.8542 33.8479 26.8542C34.558 26.8542 35.1677 27.295 35.4236 27.9218Z" fill="#DAD8DB"/>
<path d="M35.4644 21.4473H36.1316V20.7706C36.1316 20.1237 36.6484 19.5989 37.2869 19.5989C37.9253 19.5989 38.4421 20.123 38.4421 20.7706V21.4473H39.1094C39.7471 21.4473 40.2646 21.9715 40.2646 22.619C40.2646 23.2665 39.7478 23.7907 39.1094 23.7907H38.4421V24.4674C38.4421 25.1143 37.9253 25.6391 37.2869 25.6391C36.6484 25.6391 36.1316 25.115 36.1316 24.4674V23.7907H35.4644C34.8266 23.7907 34.3091 23.2665 34.3091 22.619C34.3091 21.9722 34.8259 21.4473 35.4644 21.4473Z" fill="#B3E59F"/>
<path d="M35.4644 21.4473H36.1316V20.7706C36.1316 20.1237 36.6484 19.5989 37.2869 19.5989C37.9253 19.5989 38.4421 20.123 38.4421 20.7706V21.4473H39.1094C39.7471 21.4473 40.2646 21.9715 40.2646 22.619C40.2646 23.2665 39.7478 23.7907 39.1094 23.7907H38.4421V24.4674C38.4421 25.1143 37.9253 25.6391 37.2869 25.6391C36.6484 25.6391 36.1316 25.115 36.1316 24.4674V23.7907H35.4644C34.8266 23.7907 34.3091 23.2665 34.3091 22.619C34.3091 21.9722 34.8259 21.4473 35.4644 21.4473Z" fill="#DAD8DB"/>
<path d="M18.3398 18.845C18.9149 18.845 19.3853 19.3221 19.3853 19.9054C19.3853 20.4887 18.9149 20.9658 18.3398 20.9658C17.7646 20.9658 17.2942 20.4887 17.2942 19.9054C17.2942 19.3221 17.7646 18.845 18.3398 18.845Z" fill="#C4DBF9"/>
<path d="M18.3398 18.845C18.9149 18.845 19.3853 19.3221 19.3853 19.9054C19.3853 20.4887 18.9149 20.9658 18.3398 20.9658C17.7646 20.9658 17.2942 20.4887 17.2942 19.9054C17.2942 19.3221 17.7646 18.845 18.3398 18.845Z" fill="#B3E59F"/>
<path d="M18.3398 24.272C18.9149 24.272 19.3853 24.7491 19.3853 25.3324C19.3853 25.9157 18.9149 26.3928 18.3398 26.3928C17.7646 26.3928 17.2942 25.9157 17.2942 25.3324C17.2942 24.7491 17.7646 24.272 18.3398 24.272Z" fill="#BED8FB"/>
<path d="M14.6188 22.619C14.6188 22.0357 15.0892 21.5586 15.6644 21.5586C16.2395 21.5586 16.7099 22.0357 16.7099 22.619C16.7099 23.2024 16.2395 23.6795 15.6644 23.6795C15.0892 23.6795 14.6188 23.2024 14.6188 22.619Z" fill="#EDC963"/>
<path d="M19.9703 22.619C19.9703 22.0357 20.4407 21.5586 21.0159 21.5586C21.591 21.5586 22.0614 22.0357 22.0614 22.619C22.0614 23.2024 21.591 23.6795 21.0159 23.6795C20.4407 23.6795 19.9703 23.2024 19.9703 22.619Z" fill="#DF667C"/>
<path d="M31.368 19.9298H24.6327C23.9479 19.9298 23.2223 18.7867 23.2223 18.1384H32.7777C32.7285 18.7867 32.0521 19.9298 31.3673 19.9298H31.368Z" fill="#A6AEC4"/>
<path d="M33.8472 28.9894C34.558 28.9894 35.167 28.5487 35.4229 27.9219C35.5066 28.1258 35.553 28.3498 35.553 28.5844C35.553 29.54 34.7894 30.3144 33.8472 30.3144C32.905 30.3144 32.1414 29.54 32.1414 28.5844C32.1414 28.3498 32.1878 28.1258 32.2715 27.9219C32.5281 28.5487 33.137 28.9894 33.8479 28.9894H33.8472Z" fill="#C8C5C9"/>
<path d="M23.7285 27.9218C23.7285 28.5786 22.863 29.6519 22.1521 29.6519C21.4412 29.6519 20.5764 28.5736 20.5764 27.9218C20.833 27.295 21.442 26.8542 22.1521 26.8542C22.8623 26.8542 23.4719 27.295 23.7285 27.9218Z" fill="#DAD8DB"/>
<path d="M22.1528 28.9894C22.8637 28.9894 23.4726 28.5487 23.7292 27.9219C23.8129 28.1258 23.8593 28.3498 23.8593 28.5844C23.8593 29.54 23.0957 30.3144 22.1535 30.3144C21.2113 30.3144 20.4477 29.54 20.4477 28.5844C20.4477 28.3498 20.4941 28.1258 20.5778 27.9219C20.8345 28.5487 21.4434 28.9894 22.1542 28.9894H22.1528Z" fill="#C8C5C9"/>
<path d="M24.632 19.2673H31.3673C32.0521 19.2673 32.6252 18.7852 32.7777 18.1384H32.8192V19.1204C32.8192 19.9334 32.1695 20.593 31.3673 20.593H24.632C23.8305 20.593 23.1808 19.9341 23.1808 19.1204V18.1384H23.2223C23.3748 18.786 23.9479 19.2673 24.6327 19.2673H24.632Z" fill="#959DB0"/>
</g>
<defs>
<clipPath id="clip0_73_3">
<rect width="36" height="27" fill="white" transform="matrix(-1 0 0 1 46 14)"/>
</clipPath>
</defs>
</svg>
