<svg width="56" height="56" viewBox="0 0 56 56" fill="none" xmlns="http://www.w3.org/2000/svg">
<circle cx="28" cy="28" r="28" fill="#FF8484"/>
<g clip-path="url(#clip0_73_5)">
<path d="M32.7781 36.8118H28.52V21.948C28.52 21.0099 29.2806 20.2493 30.2188 20.2493H31.0794C32.0175 20.2493 32.7781 21.0099 32.7781 21.948V36.8118Z" fill="#FFDE55"/>
<path d="M32.7781 29.5613C31.4844 30.1675 30.06 30.6975 28.52 31.0782V36.8119H32.7781V29.5613Z" fill="#FFCD00"/>
<path d="M26.6706 36.8119H22.4125V25.7C22.4125 24.8819 23.0756 24.2188 23.8937 24.2188H25.1894C26.0075 24.2188 26.6706 24.8819 26.6706 25.7V36.8119Z" fill="#A0EA7D"/>
<path d="M38.8863 34.4381H34.6288V17.2869C34.6288 16.355 35.3844 15.5994 36.3163 15.5994H37.1988C38.1306 15.5994 38.8863 16.355 38.8863 17.2869V34.4381Z" fill="#FF5757"/>
<path d="M38.8863 25.5918C37.81 26.5149 36.3744 27.6018 34.6281 28.6005V34.438H38.8863V25.5918Z" fill="#FF0000"/>
<path d="M20.535 31.3974L29.0962 26.853C30.165 26.2855 31.4125 27.218 31.1712 28.403C30.9944 29.2699 30.5919 30.1843 29.7512 30.8649L28.8737 31.5762C28.4381 31.9293 28.6875 32.6343 29.2481 32.6343L32.7669 32.6355C33.9144 32.6355 35.0337 32.2818 35.9725 31.6218L39.9044 28.8568C40.6456 28.3355 41.6562 28.428 42.2894 29.0768C43.0469 29.8518 42.9781 31.1093 42.1406 31.7968L36.99 36.0287C36.345 36.5587 35.5894 36.9368 34.7787 37.1349L23.4894 39.8987L20.5344 31.3962L20.535 31.3974Z" fill="#FFE2D9"/>
<path d="M25.2781 35.8606C22.0356 34.9088 22.2775 30.4731 22.2775 30.4731L20.535 31.3981L23.4906 39.9006L32.0956 37.7938C30.2825 37.29 27.3656 36.4738 25.2781 35.8613V35.8606Z" fill="#FFCFC2"/>
<path d="M20.535 31.3975L23.7338 39.9356C24.2638 41.3506 23.4244 42.9081 21.9506 43.2425L18.8913 43.9375C17.5775 44.2362 16.2638 43.4368 15.925 42.1325L14.2775 35.7937C13.9269 34.4437 14.7169 33.0606 16.0581 32.6775L20.535 31.3981V31.3975Z" fill="#3FE1FC"/>
<path d="M23.7338 39.9357L23.235 38.6045C21.9556 38.0082 20.5694 37.8901 19.4513 37.9351C17.995 37.9939 16.7919 36.8151 16.8394 35.3582C16.8913 33.7632 17.2256 32.3445 17.2256 32.3445L16.0581 32.6782C14.7169 33.0614 13.9269 34.4451 14.2775 35.7945L15.925 42.1339C16.2638 43.4376 17.5775 44.237 18.8913 43.9389L21.9506 43.2439C23.4244 42.9089 24.2644 41.3514 23.7338 39.937V39.9357Z" fill="#34B0D6"/>
<path d="M20.9494 40.4138C20.9494 41.1981 20.3138 41.8331 19.53 41.8331C18.7463 41.8331 18.1106 41.1975 18.1106 40.4138C18.1106 39.63 18.7463 38.9944 19.53 38.9944C20.3138 38.9944 20.9494 39.63 20.9494 40.4138Z" fill="#A0EA7D"/>
<path d="M31.6756 12H27.8137C27.26 12 26.8112 12.4488 26.8112 13.0025C26.8112 13.5563 27.26 14.005 27.8137 14.005H29.1881L25.1606 17.8819L23.2512 16.8944C22.8625 16.6931 22.3875 16.7681 22.0787 17.0788L14.2912 24.9263C13.9012 25.3194 13.9037 25.9544 14.2969 26.3444C14.4925 26.5387 14.7475 26.6356 15.0031 26.6356C15.2587 26.6356 15.5187 26.5369 15.715 26.3394L22.985 19.0138L24.8787 19.9931C25.2606 20.1906 25.725 20.1225 26.035 19.825L30.6737 15.3594V16.8981C30.6737 17.4519 31.1225 17.9006 31.6762 17.9006C32.23 17.9006 32.6787 17.4519 32.6787 16.8981V13.0025C32.6787 13.0025 32.6787 13 32.6787 12.9994C32.6781 12.1962 32.0844 12 31.6756 12Z" fill="#3FE1FC"/>
</g>
<defs>
<clipPath id="clip0_73_5">
<rect width="28.8162" height="32" fill="white" transform="translate(14 12)"/>
</clipPath>
</defs>
</svg>
