<svg width="56" height="56" viewBox="0 0 56 56" fill="none" xmlns="http://www.w3.org/2000/svg">
<g clip-path="url(#clip0_48_2)">
<path d="M56 28C56 43.4645 43.4645 56 28 56C12.5355 56 0 43.4645 0 28C0 12.5355 12.5355 0 28 0C43.4645 0 56 12.5355 56 28Z" fill="#87C7FF"/>
<path d="M56 27.9999C56 26.7717 55.9202 25.5609 55.767 24.3753L40.9489 9.55713L39.2295 11.5948L36.2239 8.58916L35.3653 11.154L31.4453 7.23401L29.5083 8.99057L30.5244 10.0078L30.1831 11.037L26.3802 7.23401L24.4409 8.99057L25.562 10.1117L24.9867 12.1373L21.4419 8.59245L19.0684 12.6514L12.3091 17.2801L21.0459 26.017L20.3678 28.4046L11.7075 19.7443L10.0089 21.7404L19.5508 31.2823L19.1023 32.8628L11.1103 24.8707L9.41828 26.8646L18.2864 35.7339L18.1475 36.2238L11.9109 29.9873L10.185 31.9232L13.4181 35.1563L12.0859 36.3759L16.7737 41.0637L15.5914 45.2298L26.3102 55.9485C26.8691 55.9813 27.4323 56.001 28 56.001C43.4645 56.001 56 43.4656 56 28.001V27.9999Z" fill="#4A98F7"/>
<path d="M29.2064 43.6439C29.1047 42.9253 29.6045 42.2614 30.3231 42.1607C31.0406 42.0601 31.7045 42.56 31.8052 43.2775C31.9069 43.995 31.4059 44.6589 30.6884 44.7595C30.6261 44.7682 30.5648 44.7726 30.5036 44.7726C29.8605 44.7726 29.2983 44.299 29.2064 43.6439ZM25.2492 44.7507C24.5317 44.6479 24.0341 43.9818 24.1369 43.2654C24.2408 42.5479 24.9058 42.0492 25.6233 42.1531C26.3408 42.257 26.8384 42.922 26.7356 43.6395C26.6416 44.2935 26.0805 44.765 25.4384 44.765C25.3761 44.765 25.3127 44.7606 25.2492 44.7507ZM34.1786 42.5862C33.8778 41.9267 34.1688 41.1479 34.8294 40.8482C35.4889 40.5475 36.2666 40.8395 36.5673 41.499C36.8681 42.1586 36.5761 42.9373 35.9166 43.237C35.7405 43.3179 35.5556 43.3551 35.3741 43.3551C34.8753 43.3551 34.3984 43.0696 34.1786 42.5862ZM20.0266 43.2118C19.3681 42.9089 19.0794 42.1301 19.3823 41.4706C19.6842 40.8121 20.4641 40.5234 21.1225 40.8264C21.7809 41.1282 22.0697 41.9081 21.7678 42.5665C21.5469 43.0478 21.0711 43.3321 20.5734 43.3311C20.3908 43.3311 20.2048 43.2928 20.0266 43.2118ZM38.6477 40.1646C38.173 39.6156 38.2342 38.7865 38.7822 38.3129C39.3312 37.8393 40.1603 37.8995 40.6339 38.4485C41.1075 38.9965 41.0473 39.8256 40.4983 40.2992C40.25 40.5135 39.9448 40.6185 39.6408 40.6185C39.2733 40.6185 38.9069 40.4643 38.6477 40.1646ZM15.4547 40.2587C14.9078 39.7829 14.8498 38.9539 15.3256 38.407C15.8014 37.8601 16.6305 37.8021 17.1773 38.2779C17.7242 38.7537 17.7822 39.5828 17.3064 40.1296C17.0472 40.4282 16.6819 40.5814 16.3155 40.5814C16.0103 40.5814 15.703 40.4753 15.4547 40.2587ZM42.257 36.5837C41.6478 36.1911 41.4739 35.3784 41.8677 34.7692C42.2603 34.1611 43.073 33.986 43.6822 34.3798C44.2903 34.7735 44.4653 35.5862 44.0716 36.1943C43.82 36.5837 43.3989 36.7948 42.968 36.7948C42.7241 36.7948 42.4769 36.727 42.257 36.5837ZM11.8956 36.1429C11.503 35.5326 11.6802 34.721 12.2905 34.3295C12.9008 33.9379 13.7123 34.1151 14.1039 34.7243C14.4955 35.3346 14.3183 36.1462 13.7091 36.5378C13.4892 36.6789 13.2431 36.7467 13.0003 36.7467C12.5694 36.7467 12.1461 36.5334 11.8956 36.1429ZM44.7147 32.1354C44.0191 31.9298 43.622 31.1992 43.8277 30.5046C44.0333 29.809 44.7628 29.412 45.4584 29.6176C46.153 29.8232 46.55 30.5528 46.3455 31.2484C46.1759 31.8193 45.6542 32.189 45.0866 32.189C44.9641 32.189 44.8383 32.1715 44.7147 32.1354ZM9.63703 31.1882C9.43469 30.4926 9.83391 29.7642 10.5295 29.5607C11.2252 29.3573 11.9547 29.7576 12.157 30.4532C12.3605 31.1489 11.9613 31.8773 11.2645 32.0807C11.142 32.1168 11.0184 32.1332 10.897 32.1332C10.3283 32.1332 9.80438 31.7614 9.63703 31.1882ZM45.8106 27.172C45.0855 27.172 44.4992 26.5814 44.5014 25.8573V25.8212C44.5014 25.0971 45.0888 24.5087 45.8139 24.5087C46.5391 24.5087 47.1264 25.0971 47.1264 25.8212V25.8628C47.1242 26.5868 46.5369 27.172 45.8139 27.172H45.8106ZM10.185 27.1151C9.45984 27.114 8.8725 26.5256 8.87359 25.8004C8.87469 25.0764 9.46313 24.489 10.1872 24.4901C10.9123 24.4901 11.4997 25.0785 11.4986 25.8037C11.4986 26.5278 10.9102 27.1151 10.1861 27.1151H10.185ZM43.8375 21.1728C43.6341 20.4771 44.0322 19.7476 44.7278 19.5442C45.4234 19.3407 46.153 19.7389 46.3564 20.4345C46.5609 21.1301 46.1617 21.8596 45.4661 22.0631C45.3425 22.0992 45.2189 22.1167 45.0964 22.1167C44.5288 22.1167 44.0059 21.7448 43.8375 21.1728ZM10.5372 22.0445C9.84266 21.84 9.44453 21.1104 9.64906 20.4148C9.85359 19.7192 10.5831 19.3211 11.2788 19.5256C11.9744 19.7301 12.3714 20.4607 12.1669 21.1553C11.9995 21.7273 11.4756 22.0981 10.9091 22.0981C10.7866 22.0981 10.6608 22.0806 10.5372 22.0445ZM41.8862 16.9028C41.4936 16.2935 41.6697 15.482 42.28 15.0893C42.8892 14.6967 43.7008 14.8728 44.0934 15.4831C44.4861 16.0923 44.31 16.9039 43.7008 17.2965C43.4809 17.4387 43.2348 17.5054 42.9909 17.5054C42.56 17.5054 42.1378 17.2932 41.8862 16.9028ZM12.3091 17.2801C11.6998 16.8864 11.5248 16.0748 11.9175 15.4656C12.3102 14.8564 13.1228 14.6814 13.732 15.074C14.3413 15.4667 14.5163 16.2793 14.1236 16.8886C13.872 17.2779 13.4498 17.4901 13.0189 17.4901C12.775 17.4901 12.5289 17.4223 12.3091 17.2801ZM38.8095 13.3535C38.2616 12.8778 38.2036 12.0487 38.6783 11.5018C39.153 10.9539 39.982 10.8959 40.53 11.3706C41.0769 11.8453 41.1359 12.6743 40.6613 13.2223C40.4009 13.5209 40.0356 13.674 39.6692 13.674C39.3641 13.674 39.0578 13.569 38.8095 13.3535ZM15.353 13.2081C14.8783 12.6601 14.9373 11.8321 15.4853 11.3575C16.0333 10.8828 16.8623 10.9418 17.337 11.4898C17.8117 12.0378 17.7516 12.8668 17.2036 13.3415C16.9553 13.557 16.6502 13.662 16.345 13.662C15.9775 13.662 15.6122 13.5078 15.353 13.2081ZM34.8611 10.8095C34.2027 10.5076 33.9128 9.72886 34.2147 9.06933C34.5166 8.41089 35.2953 8.12105 35.9538 8.42293C36.6133 8.7248 36.9031 9.50355 36.6013 10.1631C36.3803 10.6443 35.9045 10.9287 35.4069 10.9287C35.2242 10.9287 35.0383 10.8904 34.8611 10.8095ZM19.4163 10.1532C19.1144 9.49371 19.4053 8.71496 20.0648 8.41418C20.7244 8.11339 21.502 8.40324 21.8039 9.06277C22.1047 9.7223 21.8138 10.5011 21.1553 10.8018C20.9781 10.8828 20.7933 10.9211 20.6106 10.9211C20.113 10.9211 19.6361 10.6356 19.4163 10.1532ZM30.3592 9.48714C29.6406 9.38433 29.143 8.71933 29.2447 8.00183C29.3475 7.28433 30.0125 6.78668 30.73 6.88839C31.4475 6.99121 31.9463 7.65621 31.8434 8.37371C31.7505 9.02886 31.1883 9.50027 30.5462 9.50027C30.4839 9.50027 30.4216 9.49589 30.3592 9.48714ZM24.1762 8.36933C24.0745 7.65183 24.5733 6.98793 25.2908 6.88621C26.0083 6.78339 26.6733 7.28324 26.775 8.00074C26.8767 8.71824 26.378 9.38324 25.6594 9.48496C25.597 9.49371 25.5347 9.49808 25.4734 9.49808C24.8303 9.49808 24.2692 9.02449 24.1762 8.36933Z" fill="white"/>
<path d="M17.1773 38.278C16.6305 37.8022 15.8014 37.8602 15.3256 38.407C14.8498 38.9539 14.9078 39.783 15.4547 40.2588C15.703 40.4753 16.0103 40.5814 16.3155 40.5814C16.6819 40.5814 17.0472 40.4283 17.3064 40.1297C17.7822 39.5828 17.7242 38.7538 17.1773 38.278Z" fill="white"/>
<path d="M15.4853 11.3574C14.9373 11.8321 14.8783 12.6601 15.353 13.208C15.6122 13.5077 15.9775 13.662 16.345 13.662C16.6502 13.662 16.9553 13.557 17.2036 13.3415C17.7516 12.8668 17.8117 12.0377 17.337 11.4898C16.8623 10.9418 16.0333 10.8827 15.4853 11.3574Z" fill="white"/>
<path d="M21.1225 40.8264C20.4641 40.5235 19.6842 40.8122 19.3823 41.4706C19.0794 42.1302 19.3681 42.9089 20.0266 43.2119C20.2048 43.2928 20.3908 43.3311 20.5734 43.3311C21.0711 43.3311 21.5469 43.0478 21.7678 42.5666C22.0697 41.9081 21.7809 41.1283 21.1225 40.8264Z" fill="white"/>
<path d="M42.9909 17.5054C43.2348 17.5054 43.4809 17.4387 43.7008 17.2965C44.31 16.9039 44.4861 16.0923 44.0934 15.4831C43.7008 14.8728 42.8892 14.6967 42.28 15.0893C41.6697 15.482 41.4936 16.2936 41.8862 16.9028C42.1378 17.2932 42.56 17.5054 42.9909 17.5054Z" fill="#E9EDF5"/>
<path d="M43.8375 21.1729C44.0059 21.7449 44.5287 22.1168 45.0964 22.1168C45.2189 22.1168 45.3425 22.0993 45.4661 22.0632C46.1617 21.8597 46.5609 21.1302 46.3564 20.4346C46.153 19.7389 45.4234 19.3408 44.7278 19.5443C44.0322 19.7477 43.6341 20.4772 43.8375 21.1729Z" fill="#E9EDF5"/>
<path d="M40.53 11.3706C39.982 10.8959 39.153 10.9539 38.6783 11.5018C38.2036 12.0487 38.2616 12.8778 38.8095 13.3536C39.0578 13.569 39.3641 13.674 39.6692 13.674C40.0356 13.674 40.4009 13.5209 40.6613 13.2223C41.1359 12.6743 41.0769 11.8453 40.53 11.3706Z" fill="white"/>
<path d="M43.6822 34.3799C43.073 33.9861 42.2603 34.1611 41.8677 34.7693C41.4739 35.3785 41.6478 36.1911 42.257 36.5838C42.4769 36.7271 42.7241 36.7949 42.968 36.7949C43.3989 36.7949 43.82 36.5838 44.0716 36.1944C44.4653 35.5863 44.2903 34.7736 43.6822 34.3799Z" fill="#E9EDF5"/>
<path d="M38.7822 38.313C38.2342 38.7866 38.173 39.6156 38.6477 40.1647C38.9069 40.4644 39.2733 40.6186 39.6408 40.6186C39.9448 40.6186 40.25 40.5136 40.4983 40.2992C41.0473 39.8256 41.1075 38.9966 40.6339 38.4486C40.1603 37.8995 39.3312 37.8394 38.7822 38.313Z" fill="white"/>
<path d="M45.4584 29.6177C44.7628 29.4121 44.0333 29.8091 43.8277 30.5047C43.622 31.1993 44.0191 31.9299 44.7147 32.1355C44.8383 32.1716 44.9641 32.1891 45.0866 32.1891C45.6542 32.1891 46.1759 31.8194 46.3455 31.2485C46.55 30.5529 46.153 29.8233 45.4584 29.6177Z" fill="#E9EDF5"/>
<path d="M35.9538 8.42297C35.2953 8.1211 34.5166 8.41094 34.2147 9.06938C33.9128 9.72891 34.2027 10.5077 34.8611 10.8095C35.0383 10.8905 35.2242 10.9288 35.4069 10.9288C35.9045 10.9288 36.3803 10.6444 36.6013 10.1631C36.9031 9.5036 36.6133 8.72485 35.9538 8.42297Z" fill="#E9EDF5"/>
<path d="M45.8139 24.5088C45.0888 24.5088 44.5014 25.0972 44.5014 25.8213V25.8574C44.4992 26.5814 45.0855 27.171 45.8106 27.1721H45.8139C46.5369 27.1721 47.1242 26.5869 47.1264 25.8629V25.8213C47.1264 25.0972 46.5391 24.5088 45.8139 24.5088Z" fill="#E9EDF5"/>
<path d="M30.3231 42.1608C29.6045 42.2615 29.1047 42.9254 29.2064 43.644C29.2983 44.2991 29.8605 44.7727 30.5036 44.7727C30.5648 44.7727 30.6261 44.7683 30.6884 44.7596C31.4059 44.659 31.9069 43.995 31.8052 43.2775C31.7045 42.56 31.0406 42.0602 30.3231 42.1608Z" fill="white"/>
<path d="M34.8294 40.8483C34.1688 41.148 33.8778 41.9267 34.1786 42.5863C34.3984 43.0697 34.8753 43.3552 35.3741 43.3552C35.5556 43.3552 35.7405 43.318 35.9166 43.237C36.5761 42.9374 36.8681 42.1586 36.5673 41.4991C36.2666 40.8395 35.4889 40.5475 34.8294 40.8483Z" fill="white"/>
<path d="M25.6233 42.1531C24.9058 42.0492 24.2408 42.5479 24.1369 43.2654C24.0341 43.9818 24.5317 44.6479 25.2492 44.7508C25.3127 44.7606 25.3761 44.765 25.4384 44.765C26.0805 44.765 26.6416 44.2936 26.7356 43.6395C26.8384 42.922 26.3408 42.257 25.6233 42.1531Z" fill="white"/>
<path d="M30.73 6.88843C30.0125 6.78671 29.3475 7.28437 29.2447 8.00187C29.143 8.71937 29.6406 9.38437 30.3592 9.48718C30.4216 9.49593 30.4839 9.50031 30.5462 9.50031C31.1883 9.50031 31.7505 9.0289 31.8434 8.37374C31.9463 7.65624 31.4475 6.99125 30.73 6.88843Z" fill="#E9EDF5"/>
<path d="M40.9489 45.8795H18.6561C16.228 45.8795 14.2592 43.9107 14.2592 41.4826V14.7842C14.2592 11.8978 16.5998 9.55713 19.4873 9.55713H40.9489V45.8795Z" fill="#4A7AFF"/>
<path d="M27.9552 9.55713H40.9489V45.8795H27.9552V9.55713Z" fill="#0053BF"/>
<path d="M40.9489 47.0368H19.5902C16.6458 47.0368 14.2592 44.6502 14.2592 41.7058C14.2592 38.7614 16.6458 36.3749 19.5902 36.3749H40.9489V47.0368Z" fill="#0053BF"/>
<path d="M27.9552 36.3749H40.9489V47.0368H27.9552V36.3749Z" fill="#1B3B6B"/>
<path d="M40.9489 44.6195H19.6963C18.0873 44.6195 16.7825 43.3147 16.7825 41.7068C16.7825 40.099 18.0873 38.7931 19.6963 38.7931H40.9489V44.6195Z" fill="white"/>
<path d="M27.9552 38.7931H40.9489V44.6195H27.9552V38.7931Z" fill="#E9EDF5"/>
<path d="M19.4097 14.1312H37.8623V20.5297H19.4097V14.1312Z" fill="#FFCE00"/>
<path d="M27.9552 14.1312H37.8612V20.5297H27.9552V14.1312Z" fill="#FDBA12"/>
<path d="M37.4522 47.0367L34.4487 45.0964L31.4453 47.0367V40.005H37.4533V47.0367H37.4522Z" fill="#FE6A16"/>
<path d="M34.4466 40.005V45.0986L34.4488 45.0964L37.4522 47.0367V40.005H34.4466Z" fill="#F24500"/>
</g>
<defs>
<clipPath id="clip0_48_2">
<rect width="56" height="56" fill="white"/>
</clipPath>
</defs>
</svg>
